# xmcd
#
# Track frame offsets: 
#        150
#        14103
#        41489
#        56814
#        75720
#        92324
#        113502
#        131945
#        146001
#        166223
#        180403
#        204372
#        225108
#        246951
#
# Disc length: 3670 seconds
#
# Revision: 0
# Processed by: cddbd v1.5.2PL0 Copyright (c) Steve Scherf et al.
# Submitted via: ExactAudioCopy v1.1
#
DISCID=b00e540e
DTITLE=Van Morrison - 2002-07-12 Pizza Della Riforma Lugano, Switzerla
DTITLE=nd
DYEAR=1900
DGENRE=Blues
TTITLE0=Inarticulate Speech Of The Heart
TTITLE1=Did Ye Get Healed
TTITLE2=Goin' Home
TTITLE3=Talk Is Cheap
TTITLE4=Choppin' Wood
TTITLE5=Early In The Morning
TTITLE6=Moondance
TTITLE7=Days Like This
TTITLE8=Back On Top
TTITLE9=Precious Time
TTITLE10=Philsophers Stone
TTITLE11=All Work And No Play
TTITLE12=Muleskinners Blues
TTITLE13=Help Me
EXTD=
EXTT0=
EXTT1=
EXTT2=
EXTT3=
EXTT4=
EXTT5=
EXTT6=
EXTT7=
EXTT8=
EXTT9=
EXTT10=
EXTT11=
EXTT12=
EXTT13=
PLAYORDER=
